HIERARCHY
ROOT Hips
{
 OFFSET 0.000000 0.000000 0.000000
 CHANNELS 6 Xposition Yposition Zposition Yrotation Xrotation Zrotation
 JOINT Chest
 {
  OFFSET 0.000000 9.585900 0.002600
  CHANNELS 3 Yrotation Xrotation Zrotation
  JOINT Chest2
  {
   OFFSET 0.000000 9.601200 -0.005300
   CHANNELS 3 Yrotation Xrotation Zrotation
   JOINT Chest3
   {
    OFFSET 0.000000 9.561800 0.000000
    CHANNELS 3 Yrotation Xrotation Zrotation
    JOINT Chest4
    {
     OFFSET 0.000000 9.552100 0.000000
     CHANNELS 3 Yrotation Xrotation Zrotation
     JOINT Neck
     {
      OFFSET 0.000000 14.453000 0.000000
      CHANNELS 3 Yrotation Xrotation Zrotation
      JOINT Head
      {
       OFFSET 0.000000 8.936500 -0.011300
       CHANNELS 3 Yrotation Xrotation Zrotation
       End Site
       {
        OFFSET 0.000000 17.073600 -0.006000
       }
      }
     }
     JOINT RightCollar
     {
      OFFSET -2.921100 9.558500 0.000000
      CHANNELS 3 Yrotation Xrotation Zrotation
      JOINT RightShoulder
      {
       OFFSET -13.519700 0.000000 0.000000
       CHANNELS 3 Yrotation Xrotation Zrotation
       JOINT RightElbow
       {
        OFFSET 0.000000 -29.696600 0.000000
        CHANNELS 3 Yrotation Xrotation Zrotation
        JOINT RightWrist
        {
         OFFSET 0.000000 -24.004700 0.000000
         CHANNELS 3 Yrotation Xrotation Zrotation
         End Site
         {
          OFFSET 0.000000 -17.728500 0.000000
         }
        }
       }
      }
     }
     JOINT LeftCollar
     {
      OFFSET 2.921100 9.558500 0.000000
      CHANNELS 3 Yrotation Xrotation Zrotation
      JOINT LeftShoulder
      {
       OFFSET 13.519700 0.000000 0.000000
       CHANNELS 3 Yrotation Xrotation Zrotation
       JOINT LeftElbow
       {
        OFFSET 0.000000 -29.696600 0.000000
        CHANNELS 3 Yrotation Xrotation Zrotation
        JOINT LeftWrist
        {
         OFFSET 0.000000 -24.004700 0.000000
         CHANNELS 3 Yrotation Xrotation Zrotation
         End Site
         {
          OFFSET 0.000000 -17.728500 0.000000
         }
        }
       }
      }
     }
    }
   }
  }
 }
 JOINT RightHip
 {
  OFFSET -7.771700 -0.012900 -0.001300
  CHANNELS 3 Yrotation Xrotation Zrotation
  JOINT RightKnee
  {
   OFFSET 0.000000 -40.869800 0.001200
   CHANNELS 3 Yrotation Xrotation Zrotation
   JOINT RightAnkle
   {
    OFFSET 0.000000 -39.717900 0.002100
    CHANNELS 3 Yrotation Xrotation Zrotation
    JOINT RightToe
    {
     OFFSET 0.000000 -4.965400 11.033500
     CHANNELS 3 Yrotation Xrotation Zrotation
     End Site
     {
      OFFSET 0.000000 -1.423100 5.872300
     }
    }
   }
  }
 }
 JOINT LeftHip
 {
  OFFSET 7.771700 -0.012900 -0.001300
  CHANNELS 3 Yrotation Xrotation Zrotation
  JOINT LeftKnee
  {
   OFFSET 0.000000 -40.869800 0.001200
   CHANNELS 3 Yrotation Xrotation Zrotation
   JOINT LeftAnkle
   {
    OFFSET 0.000000 -39.717900 0.002100
    CHANNELS 3 Yrotation Xrotation Zrotation
    JOINT LeftToe
    {
     OFFSET 0.000000 -4.965400 11.033500
     CHANNELS 3 Yrotation Xrotation Zrotation
     End Site
     {
      OFFSET 0.000000 -1.423100 5.872300
     }
    }
   }
  }
 }
}
MOTION
Frames: 11
Frame Time: 0.008333
-267.946214 60.615700 -80.563038 161.395851 -38.867700 0.929236 3.142250 21.488830 1.199883 0.375391 2.898964 0.109334 0.614725 4.719510 0.187915 2.535092 18.248920 1.041630 10.049400 20.276073 -3.425417 12.037264 -3.451790 -6.176602 17.540025 -3.503315 -15.884589 23.984397 -37.855212 -59.158905 -35.563302 -81.587848 34.462364 -3.169301 -10.552031 -39.381656 -19.574995 -13.217246 5.190070 -19.305890 -34.522577 28.820188 163.229607 -67.287532 172.009609 -2.497189 -7.162262 10.935058 -0.971442 -30.206812 4.341314 -23.276910 65.530283 -20.713542 -0.680110 -1.325715 -1.925080 0.021705 -0.118360 0.023442 9.943450 -30.388200 1.724121 22.438626 59.055617 21.817890 -15.519157 -10.308541 2.733048 0.001010 -0.218808 0.026675
-267.946808 60.619125 -80.574955 161.538278 -38.952498 0.797094 3.044415 21.456655 1.097530 0.368570 2.888151 0.095106 0.603277 4.703051 0.164582 2.483676 18.227730 0.945000 10.149680 20.338432 -3.311364 12.125770 -3.375057 -6.073253 17.651745 -3.602656 -15.863521 24.185809 -37.779122 -59.654481 -41.687498 -80.207766 40.632214 -3.636505 -10.554748 -40.365387 -19.685590 -13.124375 5.371200 -19.758557 -34.462886 29.008868 163.343458 -67.576229 172.109916 -2.438523 -7.189667 11.259066 -1.136114 -30.105236 4.414498 -23.243939 65.541070 -20.725901 -0.693558 -1.332926 -1.922436 0.020053 -0.130722 0.034804 9.806963 -30.334070 1.817104 22.444211 59.105503 21.813993 -15.604596 -10.403564 2.687892 0.031432 -0.049550 0.073479
-267.945995 60.627298 -80.586147 161.606941 -39.060195 0.695832 2.973071 21.419501 1.029645 0.354974 2.869045 0.084716 0.581003 4.673728 0.147207 2.395464 18.186975 0.868261 10.218437 20.463779 -3.233273 12.187132 -3.225131 -6.002027 17.829643 -3.614705 -15.925724 24.549517 -37.626344 -60.080567 -45.633293 -78.871838 44.442650 -4.094605 -10.527566 -41.310218 -19.756559 -13.019379 5.444748 -20.363023 -34.435100 29.229762 164.086238 -67.817545 171.744127 -2.402435 -7.234710 11.586086 -1.238578 -29.984242 4.494477 -23.219501 65.542700 -20.731083 -0.695387 -1.313543 -1.937399 0.017903 -0.141379 0.045396 9.711611 -30.266286 1.929784 22.471589 59.212369 21.831365 -15.643138 -10.549314 2.683148 0.032961 0.058032 0.085747
-267.951245 60.633798 -80.590581 161.711331 -39.132649 0.584563 2.829669 21.331124 0.962806 0.334979 2.844658 0.077861 0.548490 4.636222 0.135472 2.270608 18.134041 0.809467 10.256360 20.635311 -3.193099 12.222686 -3.021429 -5.965390 18.065671 -3.560862 -16.078648 25.058222 -37.456346 -60.429429 -48.095777 -77.665651 46.650899 -4.528340 -10.478077 -42.172175 -19.783587 -12.928536 5.412181 -21.024266 -34.445284 29.452830 165.360568 -67.979099 170.936228 -2.388037 -7.293961 11.892082 -1.362458 -29.896429 4.565517 -23.205754 65.528488 -20.764767 -0.687457 -1.291857 -1.915506 0.005220 -0.159548 0.047891 9.593429 -30.230419 2.020176 22.472515 59.284646 21.823735 -15.698587 -10.673725 2.666554 0.044305 0.148798 0.099401
-267.957110 60.642253 -80.591464 161.811028 -39.207251 0.461018 2.663430 21.239022 0.927313 0.310603 2.817491 0.074027 0.508884 4.594545 0.128631 2.119574 18.074521 0.766671 10.260303 20.833251 -3.185043 12.226884 -2.787838 -5.956223 18.338762 -3.451566 -16.311908 25.678017 -37.333209 -60.715158 -49.551212 -76.627101 47.801362 -4.911664 -10.414745 -42.911039 -19.785771 -12.868868 5.291401 -21.661305 -34.507222 29.644016 167.057585 -68.043158 169.723852 -2.400289 -7.365361 12.165003 -1.516956 -29.787064 4.677902 -23.199996 65.469978 -20.832887 -0.673278 -1.266657 -1.891776 0.003985 -0.162533 0.052140 9.466614 -30.188588 2.123460 22.478167 59.347069 21.815483 -15.729674 -10.816166 2.663739 0.048173 0.231860 0.100834
-267.962176 60.654800 -80.591489 161.923603 -39.307680 0.308552 2.476016 21.176494 0.927059 0.284439 2.789994 0.072655 0.466379 4.552282 0.125760 1.957230 18.013369 0.738219 10.226987 21.037034 -3.201477 12.193490 -2.549438 -5.965212 18.623058 -3.298963 -16.600548 26.364312 -37.299129 -60.963823 -50.292102 -75.768315 48.251735 -5.216457 -10.348445 -43.489865 -19.788149 -12.850198 5.111572 -22.226609 -34.634030 29.785972 169.069811 -67.993988 168.170721 -2.447442 -7.441187 12.411052 -1.742682 -29.605752 4.844564 -23.140454 65.352811 -20.890593 -0.655509 -1.276256 -1.868755 0.012559 -0.113822 0.051427 9.319576 -30.111225 2.242170 22.471746 59.391713 21.797323 -15.710645 -10.978886 2.679597 0.034239 0.346042 0.092700
-267.973677 60.663322 -80.583053 162.026700 -39.360562 0.166332 2.288345 21.077759 0.928892 0.258538 2.764560 0.073132 0.424292 4.513052 0.125963 1.795726 17.956044 0.721959 10.155920 21.226967 -3.236953 12.120341 -2.330147 -5.986172 18.897354 -3.124098 -16.919369 27.067597 -37.356664 -61.198785 -50.519507 -75.102348 48.245782 -5.429299 -10.288967 -43.875896 -19.808829 -12.874841 4.904796 -22.702750 -34.825670 29.886143 171.314829 -67.808236 166.356495 -2.531666 -7.513212 12.643051 -1.888407 -29.522803 4.948238 -23.135292 65.297491 -20.921629 -0.638829 -1.243221 -1.854116 0.012517 -0.118717 0.044202 9.171051 -30.096897 2.359158 22.482730 59.438736 21.784296 -15.707126 -11.105204 2.692336 0.062999 0.374511 0.083697
-267.987497 60.670445 -80.568812 162.129944 -39.394589 0.008506 2.108739 20.973389 0.951689 0.234088 2.742568 0.074840 0.384542 4.479180 0.128181 1.642007 17.906254 0.714627 10.053678 21.388960 -3.286488 12.013848 -2.146446 -6.015189 19.151896 -2.946227 -17.249842 27.747577 -37.486403 -61.435521 -50.345392 -74.654900 47.909063 -5.555767 -10.237372 -44.051772 -19.854484 -12.934710 4.698942 -23.090643 -35.069782 29.960128 173.769649 -67.468785 164.331556 -2.647804 -7.582712 12.860925 -2.042840 -29.455174 5.068358 -23.141175 65.220511 -20.961030 -0.607109 -1.192627 -1.838175 0.007526 -0.125878 0.031459 9.002982 -30.120096 2.482970 22.530503 59.495006 21.805457 -15.683332 -11.202052 2.709778 0.092193 0.356004 0.072883
-268.007080 60.680736 -80.556287 162.256039 -39.456195 -0.146843 1.906470 20.911526 0.957611 0.211428 2.723789 0.077266 0.347692 4.450280 0.131556 1.498121 17.863380 0.713071 9.932250 21.516607 -3.346197 11.887128 -2.004993 -6.050911 19.387379 -2.770755 -17.580176 28.387709 -37.671942 -61.681680 -49.780887 -74.460138 47.253806 -5.612095 -10.177189 -44.028371 -19.909218 -13.016722 4.507445 -23.418709 -35.339808 30.025717 176.425409 -66.966824 162.145908 -2.789106 -7.653362 13.068848 -2.227325 -29.332358 5.174081 -23.091046 65.114298 -20.961770 -0.574299 -1.192736 -1.824476 0.007015 -0.079859 0.027447 8.844629 -30.091938 2.577469 22.467627 59.551156 21.731534 -15.579902 -11.305951 2.752239 0.064961 0.352967 0.045832
-268.028375 60.690432 -80.539872 162.334062 -39.513159 -0.288384 1.744739 20.857850 0.977306 0.190495 2.707811 0.080186 0.313587 4.425621 0.135793 1.364068 17.826536 0.716134 9.802850 21.606867 -3.414300 11.753048 -1.908213 -6.094232 19.610397 -2.601609 -17.906223 28.989491 -37.896690 -61.940863 -48.799119 -74.535694 46.245691 -5.599452 -10.094558 -43.825802 -19.952785 -13.111507 4.335652 -23.724420 -35.602395 30.099987 179.233875 -66.295216 159.886980 -2.947747 -7.719464 13.282523 -2.369927 -29.212420 5.288615 -23.022789 64.999026 -20.930618 -0.552042 -1.157937 -1.811942 0.009150 -0.059487 0.022229 8.719518 -30.064854 2.685728 22.427120 59.570128 21.685881 -15.557068 -11.384878 2.773200 0.066109 0.347028 0.036890
-268.050981 60.702463 -80.523607 162.414020 -39.595473 -0.442729 1.582952 20.842338 1.004775 0.171003 2.695000 0.083393 0.281855 4.405865 0.140521 1.238409 17.797195 0.722131 9.674863 21.657586 -3.489566 11.622469 -1.857546 -6.146160 19.828084 -2.452396 -18.225826 29.560217 -38.136440 -62.211760 -47.359948 -74.882353 44.828979 -5.501747 -9.985284 -43.462741 -19.975048 -13.215763 4.191514 -24.030017 -35.829692 30.191164 -177.882874 -65.457601 157.655937 -3.105615 -7.769890 13.510425 -2.520694 -29.014762 5.383813 -22.837041 64.830843 -20.769447 -0.506811 -1.160121 -1.785915 -0.001887 0.017017 -0.002858 8.589867 -30.004584 2.814345 22.362206 59.576958 21.615015 -15.550586 -11.444101 2.795480 0.070413 0.332797 0.031021
